<mxfile host="app.diagrams.net" modified="2022-10-21T03:57:18.515Z" agent="5.0 (Windows NT 10.0; WOW64) AppleWebKit/537.36 (KHTML, like Gecko) Chrome/106.0.0.0 Safari/537.36" etag="mbOoTLgFYLpRd29Kq8if" version="20.4.2" type="github">
  <diagram id="prtHgNgQTEPvFCAcTncT" name="Page-1">
    <mxGraphModel dx="1422" dy="1935" grid="1" gridSize="10" guides="1" tooltips="1" connect="1" arrows="1" fold="1" page="1" pageScale="1" pageWidth="827" pageHeight="1169" math="0" shadow="0">
      <root>
        <mxCell id="0" />
        <mxCell id="1" parent="0" />
        <mxCell id="dNxyNK7c78bLwvsdeMH5-11" value="org" style="swimlane;html=1;startSize=20;horizontal=1;containerType=tree;glass=0;" parent="1" vertex="1">
          <mxGeometry y="-10" width="2560" height="1230" as="geometry" />
        </mxCell>
        <UserObject label="%name%&lt;br&gt;&lt;i style=&quot;color: gray&quot;&gt;CEO&lt;/i&gt;" name="Tessa Miller" position="CFO" location="Office 1" email="me@example.com" placeholders="1" link="https://www.draw.io" id="dNxyNK7c78bLwvsdeMH5-12">
          <mxCell style="label;image=https://cdn3.iconfinder.com/data/icons/user-avatars-1/512/users-3-128.png;whiteSpace=wrap;html=1;rounded=0;glass=0;treeMoving=1;treeFolding=1;" parent="dNxyNK7c78bLwvsdeMH5-11" vertex="1">
            <mxGeometry x="1480" y="185" width="180" height="70" as="geometry" />
          </mxCell>
        </UserObject>
        <mxCell id="dNxyNK7c78bLwvsdeMH5-13" value="" style="endArrow=blockThin;endFill=1;fontSize=11;edgeStyle=elbowEdgeStyle;elbow=vertical;rounded=0;" parent="dNxyNK7c78bLwvsdeMH5-11" source="dNxyNK7c78bLwvsdeMH5-12" target="dNxyNK7c78bLwvsdeMH5-14" edge="1">
          <mxGeometry relative="1" as="geometry" />
        </mxCell>
        <UserObject label="%name%&lt;br&gt;&lt;i style=&quot;color: gray&quot;&gt;Front office&lt;/i&gt;" name="Edward Morrison" position="Brand Manager" location="Office 2" email="me@example.com" placeholders="1" link="https://www.draw.io" id="dNxyNK7c78bLwvsdeMH5-14">
          <mxCell style="label;image=https://cdn3.iconfinder.com/data/icons/user-avatars-1/512/users-10-3-128.png;whiteSpace=wrap;html=1;rounded=0;glass=0;treeFolding=1;treeMoving=1;" parent="dNxyNK7c78bLwvsdeMH5-11" vertex="1">
            <mxGeometry x="1260" y="315" width="180" height="80" as="geometry" />
          </mxCell>
        </UserObject>
        <mxCell id="dNxyNK7c78bLwvsdeMH5-15" value="" style="endArrow=blockThin;endFill=1;fontSize=11;edgeStyle=elbowEdgeStyle;elbow=vertical;rounded=0;" parent="dNxyNK7c78bLwvsdeMH5-11" source="dNxyNK7c78bLwvsdeMH5-12" target="dNxyNK7c78bLwvsdeMH5-16" edge="1">
          <mxGeometry relative="1" as="geometry" />
        </mxCell>
        <UserObject label="%name%&lt;br&gt;&lt;font color=&quot;#808080&quot;&gt;&lt;i&gt;Back office&amp;nbsp;&lt;/i&gt;&lt;/font&gt;" name="Evan Valet" position="HR Director" location="Office 4" email="me@example.com" placeholders="1" link="https://www.draw.io" id="dNxyNK7c78bLwvsdeMH5-16">
          <mxCell style="label;image=https://cdn3.iconfinder.com/data/icons/user-avatars-1/512/users-9-2-128.png;whiteSpace=wrap;html=1;rounded=0;glass=0;treeFolding=1;treeMoving=1;" parent="dNxyNK7c78bLwvsdeMH5-11" vertex="1">
            <mxGeometry x="1480" y="315" width="180" height="80" as="geometry" />
          </mxCell>
        </UserObject>
        <mxCell id="dNxyNK7c78bLwvsdeMH5-17" value="" style="endArrow=blockThin;endFill=1;fontSize=11;edgeStyle=elbowEdgeStyle;elbow=vertical;rounded=0;" parent="dNxyNK7c78bLwvsdeMH5-11" source="dNxyNK7c78bLwvsdeMH5-12" target="dNxyNK7c78bLwvsdeMH5-18" edge="1">
          <mxGeometry relative="1" as="geometry" />
        </mxCell>
        <mxCell id="rpXfXyATRKpVkTqgFrdx-11" style="edgeStyle=orthogonalEdgeStyle;rounded=0;orthogonalLoop=1;jettySize=auto;html=1;entryX=0.75;entryY=0;entryDx=0;entryDy=0;" edge="1" parent="dNxyNK7c78bLwvsdeMH5-11" source="dNxyNK7c78bLwvsdeMH5-18" target="rpXfXyATRKpVkTqgFrdx-3">
          <mxGeometry relative="1" as="geometry">
            <Array as="points">
              <mxPoint x="1815" y="460" />
              <mxPoint x="1718" y="460" />
            </Array>
          </mxGeometry>
        </mxCell>
        <UserObject label="&lt;span style=&quot;font-weight: normal; font-size: 13pt; font-family: Calibri, Arial;&quot; data-sheets-userformat=&quot;{&amp;quot;2&amp;quot;:15273,&amp;quot;3&amp;quot;:{&amp;quot;1&amp;quot;:0},&amp;quot;6&amp;quot;:{&amp;quot;1&amp;quot;:[{&amp;quot;1&amp;quot;:2,&amp;quot;2&amp;quot;:0,&amp;quot;5&amp;quot;:{&amp;quot;1&amp;quot;:2,&amp;quot;2&amp;quot;:0}},{&amp;quot;1&amp;quot;:0,&amp;quot;2&amp;quot;:0,&amp;quot;3&amp;quot;:3},{&amp;quot;1&amp;quot;:1,&amp;quot;2&amp;quot;:0,&amp;quot;4&amp;quot;:1}]},&amp;quot;8&amp;quot;:{&amp;quot;1&amp;quot;:[{&amp;quot;1&amp;quot;:2,&amp;quot;2&amp;quot;:0,&amp;quot;5&amp;quot;:{&amp;quot;1&amp;quot;:2,&amp;quot;2&amp;quot;:0}},{&amp;quot;1&amp;quot;:0,&amp;quot;2&amp;quot;:0,&amp;quot;3&amp;quot;:3},{&amp;quot;1&amp;quot;:1,&amp;quot;2&amp;quot;:0,&amp;quot;4&amp;quot;:1}]},&amp;quot;10&amp;quot;:1,&amp;quot;11&amp;quot;:0,&amp;quot;12&amp;quot;:0,&amp;quot;14&amp;quot;:{&amp;quot;1&amp;quot;:2,&amp;quot;2&amp;quot;:0},&amp;quot;15&amp;quot;:&amp;quot;Calibri, sans-serif&amp;quot;,&amp;quot;16&amp;quot;:13}&quot; data-sheets-value=&quot;{&amp;quot;1&amp;quot;:2,&amp;quot;2&amp;quot;:&amp;quot;Nguyễn Thị Hương Giang&amp;quot;}&quot;&gt;Nguyễn Thị Hương Giang&lt;/span&gt;&lt;br&gt;&lt;i style=&quot;color: gray&quot;&gt;CTO&lt;/i&gt;" name="Alison Donovan" position="System Admin" location="Office 3" email="me@example.com" placeholders="1" link="https://www.draw.io" id="dNxyNK7c78bLwvsdeMH5-18">
          <mxCell style="label;image=https://cdn3.iconfinder.com/data/icons/user-avatars-1/512/users-2-128.png;whiteSpace=wrap;html=1;rounded=0;glass=0;" parent="dNxyNK7c78bLwvsdeMH5-11" vertex="1">
            <mxGeometry x="1690" y="315" width="250" height="80" as="geometry" />
          </mxCell>
        </UserObject>
        <mxCell id="rpXfXyATRKpVkTqgFrdx-2" value="" style="endArrow=blockThin;endFill=1;fontSize=11;edgeStyle=elbowEdgeStyle;elbow=vertical;rounded=0;exitX=0.5;exitY=1;exitDx=0;exitDy=0;" edge="1" source="dNxyNK7c78bLwvsdeMH5-18" parent="dNxyNK7c78bLwvsdeMH5-11">
          <mxGeometry relative="1" as="geometry">
            <mxPoint x="1815" y="405" as="sourcePoint" />
            <mxPoint x="1940" y="510" as="targetPoint" />
            <Array as="points">
              <mxPoint x="1900" y="460" />
              <mxPoint x="1720" y="465" />
            </Array>
          </mxGeometry>
        </mxCell>
        <mxCell id="rpXfXyATRKpVkTqgFrdx-15" style="edgeStyle=orthogonalEdgeStyle;rounded=0;orthogonalLoop=1;jettySize=auto;html=1;entryX=0.5;entryY=0;entryDx=0;entryDy=0;" edge="1" parent="dNxyNK7c78bLwvsdeMH5-11" source="rpXfXyATRKpVkTqgFrdx-3" target="rpXfXyATRKpVkTqgFrdx-14">
          <mxGeometry relative="1" as="geometry" />
        </mxCell>
        <UserObject label="&lt;span style=&quot;font-weight: normal; font-size: 13pt; font-family: Calibri, Arial;&quot; data-sheets-userformat=&quot;{&amp;quot;2&amp;quot;:15273,&amp;quot;3&amp;quot;:{&amp;quot;1&amp;quot;:0},&amp;quot;6&amp;quot;:{&amp;quot;1&amp;quot;:[{&amp;quot;1&amp;quot;:2,&amp;quot;2&amp;quot;:0,&amp;quot;5&amp;quot;:{&amp;quot;1&amp;quot;:2,&amp;quot;2&amp;quot;:0}},{&amp;quot;1&amp;quot;:0,&amp;quot;2&amp;quot;:0,&amp;quot;3&amp;quot;:3},{&amp;quot;1&amp;quot;:1,&amp;quot;2&amp;quot;:0,&amp;quot;4&amp;quot;:1}]},&amp;quot;8&amp;quot;:{&amp;quot;1&amp;quot;:[{&amp;quot;1&amp;quot;:2,&amp;quot;2&amp;quot;:0,&amp;quot;5&amp;quot;:{&amp;quot;1&amp;quot;:2,&amp;quot;2&amp;quot;:0}},{&amp;quot;1&amp;quot;:0,&amp;quot;2&amp;quot;:0,&amp;quot;3&amp;quot;:3},{&amp;quot;1&amp;quot;:1,&amp;quot;2&amp;quot;:0,&amp;quot;4&amp;quot;:1}]},&amp;quot;10&amp;quot;:1,&amp;quot;11&amp;quot;:0,&amp;quot;12&amp;quot;:0,&amp;quot;14&amp;quot;:{&amp;quot;1&amp;quot;:2,&amp;quot;2&amp;quot;:0},&amp;quot;15&amp;quot;:&amp;quot;Calibri, sans-serif&amp;quot;,&amp;quot;16&amp;quot;:13}&quot; data-sheets-value=&quot;{&amp;quot;1&amp;quot;:2,&amp;quot;2&amp;quot;:&amp;quot;Lê Hữu Dương&amp;quot;}&quot;&gt;Lê Hữu Dương&lt;br&gt;&lt;/span&gt;&lt;font color=&quot;#808080&quot;&gt;&lt;i&gt;Project Manager&lt;/i&gt;&lt;/font&gt;" name="Alison Donovan" position="System Admin" location="Office 3" email="me@example.com" placeholders="1" link="https://www.draw.io" id="rpXfXyATRKpVkTqgFrdx-3">
          <mxCell style="label;image=https://cdn3.iconfinder.com/data/icons/user-avatars-1/512/users-2-128.png;whiteSpace=wrap;html=1;rounded=0;glass=0;" vertex="1" parent="dNxyNK7c78bLwvsdeMH5-11">
            <mxGeometry x="1530" y="515" width="250" height="80" as="geometry" />
          </mxCell>
        </UserObject>
        <mxCell id="rpXfXyATRKpVkTqgFrdx-18" style="edgeStyle=orthogonalEdgeStyle;rounded=0;orthogonalLoop=1;jettySize=auto;html=1;entryX=0.5;entryY=0;entryDx=0;entryDy=0;" edge="1" parent="dNxyNK7c78bLwvsdeMH5-11" source="rpXfXyATRKpVkTqgFrdx-7" target="rpXfXyATRKpVkTqgFrdx-14">
          <mxGeometry relative="1" as="geometry" />
        </mxCell>
        <mxCell id="rpXfXyATRKpVkTqgFrdx-30" value="Engineering&amp;nbsp;&lt;br&gt;" style="edgeLabel;html=1;align=center;verticalAlign=middle;resizable=0;points=[];" vertex="1" connectable="0" parent="rpXfXyATRKpVkTqgFrdx-18">
          <mxGeometry x="0.5474" y="2" relative="1" as="geometry">
            <mxPoint x="1" as="offset" />
          </mxGeometry>
        </mxCell>
        <UserObject label="&lt;span style=&quot;font-weight: normal; font-size: 13pt; font-family: Calibri, Arial;&quot; data-sheets-userformat=&quot;{&amp;quot;2&amp;quot;:15273,&amp;quot;3&amp;quot;:{&amp;quot;1&amp;quot;:0},&amp;quot;6&amp;quot;:{&amp;quot;1&amp;quot;:[{&amp;quot;1&amp;quot;:2,&amp;quot;2&amp;quot;:0,&amp;quot;5&amp;quot;:{&amp;quot;1&amp;quot;:2,&amp;quot;2&amp;quot;:0}},{&amp;quot;1&amp;quot;:0,&amp;quot;2&amp;quot;:0,&amp;quot;3&amp;quot;:3},{&amp;quot;1&amp;quot;:1,&amp;quot;2&amp;quot;:0,&amp;quot;4&amp;quot;:1}]},&amp;quot;8&amp;quot;:{&amp;quot;1&amp;quot;:[{&amp;quot;1&amp;quot;:2,&amp;quot;2&amp;quot;:0,&amp;quot;5&amp;quot;:{&amp;quot;1&amp;quot;:2,&amp;quot;2&amp;quot;:0}},{&amp;quot;1&amp;quot;:0,&amp;quot;2&amp;quot;:0,&amp;quot;3&amp;quot;:3},{&amp;quot;1&amp;quot;:1,&amp;quot;2&amp;quot;:0,&amp;quot;4&amp;quot;:1}]},&amp;quot;10&amp;quot;:1,&amp;quot;11&amp;quot;:0,&amp;quot;12&amp;quot;:0,&amp;quot;14&amp;quot;:{&amp;quot;1&amp;quot;:2,&amp;quot;2&amp;quot;:0},&amp;quot;15&amp;quot;:&amp;quot;Calibri, sans-serif&amp;quot;,&amp;quot;16&amp;quot;:13}&quot; data-sheets-value=&quot;{&amp;quot;1&amp;quot;:2,&amp;quot;2&amp;quot;:&amp;quot;Bùi Thị Hằng&amp;quot;}&quot;&gt;Bùi Thị Hằng&lt;br&gt;&lt;/span&gt;&lt;font color=&quot;#808080&quot;&gt;&lt;i&gt;Project Owner&lt;/i&gt;&lt;/font&gt;" name="Alison Donovan" position="System Admin" location="Office 3" email="me@example.com" placeholders="1" link="https://www.draw.io" id="rpXfXyATRKpVkTqgFrdx-7">
          <mxCell style="label;image=https://cdn3.iconfinder.com/data/icons/user-avatars-1/512/users-2-128.png;whiteSpace=wrap;html=1;rounded=0;glass=0;" vertex="1" parent="dNxyNK7c78bLwvsdeMH5-11">
            <mxGeometry x="1830" y="515" width="250" height="80" as="geometry" />
          </mxCell>
        </UserObject>
        <UserObject label="Project participants" name="Tessa Miller" position="CFO" location="Office 1" email="me@example.com" placeholders="1" link="https://www.draw.io" id="rpXfXyATRKpVkTqgFrdx-9">
          <mxCell style="label;image=https://cdn3.iconfinder.com/data/icons/user-avatars-1/512/users-3-128.png;whiteSpace=wrap;html=1;rounded=0;glass=0;treeMoving=1;treeFolding=1;" vertex="1" parent="dNxyNK7c78bLwvsdeMH5-11">
            <mxGeometry x="1010" y="50" width="180" height="70" as="geometry" />
          </mxCell>
        </UserObject>
        <UserObject label="&lt;br&gt;&lt;font style=&quot;font-family: Helvetica; font-size: 12px; font-style: normal; font-variant-ligatures: normal; font-variant-caps: normal; font-weight: 700; letter-spacing: normal; orphans: 2; text-align: left; text-indent: 0px; text-transform: none; widows: 2; word-spacing: 0px; -webkit-text-stroke-width: 0px; background-color: rgb(248, 249, 250); text-decoration-thickness: initial; text-decoration-style: initial; text-decoration-color: initial;&quot; color=&quot;#808080&quot;&gt;&lt;span style=&quot;color: rgb(0, 0, 0); font-weight: normal; font-size: 13pt; font-family: Calibri, Arial;&quot; data-sheets-userformat=&quot;{&amp;quot;2&amp;quot;:15273,&amp;quot;3&amp;quot;:{&amp;quot;1&amp;quot;:0},&amp;quot;6&amp;quot;:{&amp;quot;1&amp;quot;:[{&amp;quot;1&amp;quot;:2,&amp;quot;2&amp;quot;:0,&amp;quot;5&amp;quot;:{&amp;quot;1&amp;quot;:2,&amp;quot;2&amp;quot;:0}},{&amp;quot;1&amp;quot;:0,&amp;quot;2&amp;quot;:0,&amp;quot;3&amp;quot;:3},{&amp;quot;1&amp;quot;:1,&amp;quot;2&amp;quot;:0,&amp;quot;4&amp;quot;:1}]},&amp;quot;8&amp;quot;:{&amp;quot;1&amp;quot;:[{&amp;quot;1&amp;quot;:2,&amp;quot;2&amp;quot;:0,&amp;quot;5&amp;quot;:{&amp;quot;1&amp;quot;:2,&amp;quot;2&amp;quot;:0}},{&amp;quot;1&amp;quot;:0,&amp;quot;2&amp;quot;:0,&amp;quot;3&amp;quot;:3},{&amp;quot;1&amp;quot;:1,&amp;quot;2&amp;quot;:0,&amp;quot;4&amp;quot;:1}]},&amp;quot;10&amp;quot;:1,&amp;quot;11&amp;quot;:0,&amp;quot;12&amp;quot;:0,&amp;quot;14&amp;quot;:{&amp;quot;1&amp;quot;:2,&amp;quot;2&amp;quot;:0},&amp;quot;15&amp;quot;:&amp;quot;Calibri, sans-serif&amp;quot;,&amp;quot;16&amp;quot;:13}&quot; data-sheets-value=&quot;{&amp;quot;1&amp;quot;:2,&amp;quot;2&amp;quot;:&amp;quot;Nguyễn Văn Trường&amp;quot;}&quot;&gt;Nguyễn Văn Trường&lt;br&gt;&lt;/span&gt;&lt;i&gt;Team Leader&lt;/i&gt;&lt;/font&gt;&lt;br&gt;" name="Alison Donovan" position="System Admin" location="Office 3" email="me@example.com" placeholders="1" link="https://www.draw.io" id="rpXfXyATRKpVkTqgFrdx-14">
          <mxCell style="label;image=https://cdn3.iconfinder.com/data/icons/user-avatars-1/512/users-2-128.png;whiteSpace=wrap;html=1;rounded=0;glass=0;" vertex="1" parent="dNxyNK7c78bLwvsdeMH5-11">
            <mxGeometry x="1670" y="720" width="250" height="80" as="geometry" />
          </mxCell>
        </UserObject>
        <mxCell id="rpXfXyATRKpVkTqgFrdx-19" style="edgeStyle=orthogonalEdgeStyle;rounded=0;orthogonalLoop=1;jettySize=auto;html=1;entryX=0.5;entryY=0;entryDx=0;entryDy=0;" edge="1" target="rpXfXyATRKpVkTqgFrdx-20" source="rpXfXyATRKpVkTqgFrdx-14" parent="dNxyNK7c78bLwvsdeMH5-11">
          <mxGeometry relative="1" as="geometry">
            <mxPoint x="1755" y="585" as="sourcePoint" />
            <Array as="points">
              <mxPoint x="1795" y="870" />
              <mxPoint x="1365" y="870" />
            </Array>
          </mxGeometry>
        </mxCell>
        <UserObject label="&lt;br&gt;&lt;font style=&quot;font-family: Helvetica; font-size: 12px; font-style: normal; font-variant-ligatures: normal; font-variant-caps: normal; font-weight: 700; letter-spacing: normal; orphans: 2; text-align: left; text-indent: 0px; text-transform: none; widows: 2; word-spacing: 0px; -webkit-text-stroke-width: 0px; background-color: rgb(248, 249, 250); text-decoration-thickness: initial; text-decoration-style: initial; text-decoration-color: initial;&quot; color=&quot;#808080&quot;&gt;&lt;span style=&quot;color: rgb(0, 0, 0); font-weight: normal; font-size: 13pt; font-family: Calibri, Arial;&quot; data-sheets-userformat=&quot;{&amp;quot;2&amp;quot;:15273,&amp;quot;3&amp;quot;:{&amp;quot;1&amp;quot;:0},&amp;quot;6&amp;quot;:{&amp;quot;1&amp;quot;:[{&amp;quot;1&amp;quot;:2,&amp;quot;2&amp;quot;:0,&amp;quot;5&amp;quot;:{&amp;quot;1&amp;quot;:2,&amp;quot;2&amp;quot;:0}},{&amp;quot;1&amp;quot;:0,&amp;quot;2&amp;quot;:0,&amp;quot;3&amp;quot;:3},{&amp;quot;1&amp;quot;:1,&amp;quot;2&amp;quot;:0,&amp;quot;4&amp;quot;:1}]},&amp;quot;8&amp;quot;:{&amp;quot;1&amp;quot;:[{&amp;quot;1&amp;quot;:2,&amp;quot;2&amp;quot;:0,&amp;quot;5&amp;quot;:{&amp;quot;1&amp;quot;:2,&amp;quot;2&amp;quot;:0}},{&amp;quot;1&amp;quot;:0,&amp;quot;2&amp;quot;:0,&amp;quot;3&amp;quot;:3},{&amp;quot;1&amp;quot;:1,&amp;quot;2&amp;quot;:0,&amp;quot;4&amp;quot;:1}]},&amp;quot;10&amp;quot;:1,&amp;quot;11&amp;quot;:0,&amp;quot;12&amp;quot;:0,&amp;quot;14&amp;quot;:{&amp;quot;1&amp;quot;:2,&amp;quot;2&amp;quot;:0},&amp;quot;15&amp;quot;:&amp;quot;Calibri, sans-serif&amp;quot;,&amp;quot;16&amp;quot;:13}&quot; data-sheets-value=&quot;{&amp;quot;1&amp;quot;:2,&amp;quot;2&amp;quot;:&amp;quot;Nguyễn Văn Trường&amp;quot;}&quot;&gt;&lt;span style=&quot;font-size: 13pt;&quot; data-sheets-userformat=&quot;{&amp;quot;2&amp;quot;:15273,&amp;quot;3&amp;quot;:{&amp;quot;1&amp;quot;:0},&amp;quot;6&amp;quot;:{&amp;quot;1&amp;quot;:[{&amp;quot;1&amp;quot;:2,&amp;quot;2&amp;quot;:0,&amp;quot;5&amp;quot;:{&amp;quot;1&amp;quot;:2,&amp;quot;2&amp;quot;:0}},{&amp;quot;1&amp;quot;:0,&amp;quot;2&amp;quot;:0,&amp;quot;3&amp;quot;:3},{&amp;quot;1&amp;quot;:1,&amp;quot;2&amp;quot;:0,&amp;quot;4&amp;quot;:1}]},&amp;quot;8&amp;quot;:{&amp;quot;1&amp;quot;:[{&amp;quot;1&amp;quot;:2,&amp;quot;2&amp;quot;:0,&amp;quot;5&amp;quot;:{&amp;quot;1&amp;quot;:2,&amp;quot;2&amp;quot;:0}},{&amp;quot;1&amp;quot;:0,&amp;quot;2&amp;quot;:0,&amp;quot;3&amp;quot;:3},{&amp;quot;1&amp;quot;:1,&amp;quot;2&amp;quot;:0,&amp;quot;4&amp;quot;:1}]},&amp;quot;10&amp;quot;:1,&amp;quot;11&amp;quot;:0,&amp;quot;12&amp;quot;:0,&amp;quot;14&amp;quot;:{&amp;quot;1&amp;quot;:2,&amp;quot;2&amp;quot;:0},&amp;quot;15&amp;quot;:&amp;quot;Calibri, sans-serif&amp;quot;,&amp;quot;16&amp;quot;:13}&quot; data-sheets-value=&quot;{&amp;quot;1&amp;quot;:2,&amp;quot;2&amp;quot;:&amp;quot;Lê Hải Sơn (Đại diện)&amp;quot;}&quot;&gt;Lê Hải Sơn&amp;nbsp;&lt;/span&gt;&lt;br&gt;&lt;/span&gt;&lt;i&gt;Dev&lt;/i&gt;&lt;/font&gt;" name="Alison Donovan" position="System Admin" location="Office 3" email="me@example.com" placeholders="1" link="https://www.draw.io" id="rpXfXyATRKpVkTqgFrdx-20">
          <mxCell style="label;image=https://cdn3.iconfinder.com/data/icons/user-avatars-1/512/users-2-128.png;whiteSpace=wrap;html=1;rounded=0;glass=0;" vertex="1" parent="dNxyNK7c78bLwvsdeMH5-11">
            <mxGeometry x="1240" y="950" width="250" height="80" as="geometry" />
          </mxCell>
        </UserObject>
        <mxCell id="rpXfXyATRKpVkTqgFrdx-21" style="edgeStyle=orthogonalEdgeStyle;rounded=0;orthogonalLoop=1;jettySize=auto;html=1;entryX=0.5;entryY=0;entryDx=0;entryDy=0;" edge="1" target="rpXfXyATRKpVkTqgFrdx-22" source="rpXfXyATRKpVkTqgFrdx-14" parent="dNxyNK7c78bLwvsdeMH5-11">
          <mxGeometry relative="1" as="geometry">
            <mxPoint x="1755" y="585" as="sourcePoint" />
            <Array as="points">
              <mxPoint x="1795" y="870" />
              <mxPoint x="1635" y="870" />
            </Array>
          </mxGeometry>
        </mxCell>
        <UserObject label="&lt;br&gt;&lt;font style=&quot;font-family: Helvetica; font-size: 12px; font-style: normal; font-variant-ligatures: normal; font-variant-caps: normal; font-weight: 700; letter-spacing: normal; orphans: 2; text-align: left; text-indent: 0px; text-transform: none; widows: 2; word-spacing: 0px; -webkit-text-stroke-width: 0px; background-color: rgb(248, 249, 250); text-decoration-thickness: initial; text-decoration-style: initial; text-decoration-color: initial;&quot; color=&quot;#808080&quot;&gt;&lt;span style=&quot;color: rgb(0, 0, 0); font-weight: normal; font-size: 13pt; font-family: Calibri, Arial;&quot; data-sheets-userformat=&quot;{&amp;quot;2&amp;quot;:15273,&amp;quot;3&amp;quot;:{&amp;quot;1&amp;quot;:0},&amp;quot;6&amp;quot;:{&amp;quot;1&amp;quot;:[{&amp;quot;1&amp;quot;:2,&amp;quot;2&amp;quot;:0,&amp;quot;5&amp;quot;:{&amp;quot;1&amp;quot;:2,&amp;quot;2&amp;quot;:0}},{&amp;quot;1&amp;quot;:0,&amp;quot;2&amp;quot;:0,&amp;quot;3&amp;quot;:3},{&amp;quot;1&amp;quot;:1,&amp;quot;2&amp;quot;:0,&amp;quot;4&amp;quot;:1}]},&amp;quot;8&amp;quot;:{&amp;quot;1&amp;quot;:[{&amp;quot;1&amp;quot;:2,&amp;quot;2&amp;quot;:0,&amp;quot;5&amp;quot;:{&amp;quot;1&amp;quot;:2,&amp;quot;2&amp;quot;:0}},{&amp;quot;1&amp;quot;:0,&amp;quot;2&amp;quot;:0,&amp;quot;3&amp;quot;:3},{&amp;quot;1&amp;quot;:1,&amp;quot;2&amp;quot;:0,&amp;quot;4&amp;quot;:1}]},&amp;quot;10&amp;quot;:1,&amp;quot;11&amp;quot;:0,&amp;quot;12&amp;quot;:0,&amp;quot;14&amp;quot;:{&amp;quot;1&amp;quot;:2,&amp;quot;2&amp;quot;:0},&amp;quot;15&amp;quot;:&amp;quot;Calibri, sans-serif&amp;quot;,&amp;quot;16&amp;quot;:13}&quot; data-sheets-value=&quot;{&amp;quot;1&amp;quot;:2,&amp;quot;2&amp;quot;:&amp;quot;Nguyễn Văn Trường&amp;quot;}&quot;&gt;&lt;span style=&quot;font-size: 13pt;&quot; data-sheets-userformat=&quot;{&amp;quot;2&amp;quot;:15273,&amp;quot;3&amp;quot;:{&amp;quot;1&amp;quot;:0},&amp;quot;6&amp;quot;:{&amp;quot;1&amp;quot;:[{&amp;quot;1&amp;quot;:2,&amp;quot;2&amp;quot;:0,&amp;quot;5&amp;quot;:{&amp;quot;1&amp;quot;:2,&amp;quot;2&amp;quot;:0}},{&amp;quot;1&amp;quot;:0,&amp;quot;2&amp;quot;:0,&amp;quot;3&amp;quot;:3},{&amp;quot;1&amp;quot;:1,&amp;quot;2&amp;quot;:0,&amp;quot;4&amp;quot;:1}]},&amp;quot;8&amp;quot;:{&amp;quot;1&amp;quot;:[{&amp;quot;1&amp;quot;:2,&amp;quot;2&amp;quot;:0,&amp;quot;5&amp;quot;:{&amp;quot;1&amp;quot;:2,&amp;quot;2&amp;quot;:0}},{&amp;quot;1&amp;quot;:0,&amp;quot;2&amp;quot;:0,&amp;quot;3&amp;quot;:3},{&amp;quot;1&amp;quot;:1,&amp;quot;2&amp;quot;:0,&amp;quot;4&amp;quot;:1}]},&amp;quot;10&amp;quot;:1,&amp;quot;11&amp;quot;:0,&amp;quot;12&amp;quot;:0,&amp;quot;14&amp;quot;:{&amp;quot;1&amp;quot;:2,&amp;quot;2&amp;quot;:0},&amp;quot;15&amp;quot;:&amp;quot;Calibri, sans-serif&amp;quot;,&amp;quot;16&amp;quot;:13}&quot; data-sheets-value=&quot;{&amp;quot;1&amp;quot;:2,&amp;quot;2&amp;quot;:&amp;quot;Lê Thị Thuý (Đại diện)&amp;quot;}&quot;&gt;Lê Thị Thuý&amp;nbsp;&lt;/span&gt;&lt;br&gt;&lt;/span&gt;&lt;i&gt;Tester&lt;/i&gt;&lt;/font&gt;" name="Alison Donovan" position="System Admin" location="Office 3" email="me@example.com" placeholders="1" link="https://www.draw.io" id="rpXfXyATRKpVkTqgFrdx-22">
          <mxCell style="label;image=https://cdn3.iconfinder.com/data/icons/user-avatars-1/512/users-2-128.png;whiteSpace=wrap;html=1;rounded=0;glass=0;" vertex="1" parent="dNxyNK7c78bLwvsdeMH5-11">
            <mxGeometry x="1510" y="950" width="250" height="80" as="geometry" />
          </mxCell>
        </UserObject>
        <mxCell id="rpXfXyATRKpVkTqgFrdx-23" style="edgeStyle=orthogonalEdgeStyle;rounded=0;orthogonalLoop=1;jettySize=auto;html=1;entryX=0.5;entryY=0;entryDx=0;entryDy=0;" edge="1" target="rpXfXyATRKpVkTqgFrdx-24" source="rpXfXyATRKpVkTqgFrdx-14" parent="dNxyNK7c78bLwvsdeMH5-11">
          <mxGeometry relative="1" as="geometry">
            <mxPoint x="1785" y="585" as="sourcePoint" />
            <Array as="points">
              <mxPoint x="1795" y="870" />
              <mxPoint x="1895" y="870" />
            </Array>
          </mxGeometry>
        </mxCell>
        <UserObject label="&lt;br&gt;&lt;font style=&quot;font-family: Helvetica; font-size: 12px; font-style: normal; font-variant-ligatures: normal; font-variant-caps: normal; font-weight: 700; letter-spacing: normal; orphans: 2; text-align: left; text-indent: 0px; text-transform: none; widows: 2; word-spacing: 0px; -webkit-text-stroke-width: 0px; background-color: rgb(248, 249, 250); text-decoration-thickness: initial; text-decoration-style: initial; text-decoration-color: initial;&quot; color=&quot;#808080&quot;&gt;&lt;span style=&quot;color: rgb(0, 0, 0); font-weight: normal; font-size: 13pt; font-family: Calibri, Arial;&quot; data-sheets-userformat=&quot;{&amp;quot;2&amp;quot;:15273,&amp;quot;3&amp;quot;:{&amp;quot;1&amp;quot;:0},&amp;quot;6&amp;quot;:{&amp;quot;1&amp;quot;:[{&amp;quot;1&amp;quot;:2,&amp;quot;2&amp;quot;:0,&amp;quot;5&amp;quot;:{&amp;quot;1&amp;quot;:2,&amp;quot;2&amp;quot;:0}},{&amp;quot;1&amp;quot;:0,&amp;quot;2&amp;quot;:0,&amp;quot;3&amp;quot;:3},{&amp;quot;1&amp;quot;:1,&amp;quot;2&amp;quot;:0,&amp;quot;4&amp;quot;:1}]},&amp;quot;8&amp;quot;:{&amp;quot;1&amp;quot;:[{&amp;quot;1&amp;quot;:2,&amp;quot;2&amp;quot;:0,&amp;quot;5&amp;quot;:{&amp;quot;1&amp;quot;:2,&amp;quot;2&amp;quot;:0}},{&amp;quot;1&amp;quot;:0,&amp;quot;2&amp;quot;:0,&amp;quot;3&amp;quot;:3},{&amp;quot;1&amp;quot;:1,&amp;quot;2&amp;quot;:0,&amp;quot;4&amp;quot;:1}]},&amp;quot;10&amp;quot;:1,&amp;quot;11&amp;quot;:0,&amp;quot;12&amp;quot;:0,&amp;quot;14&amp;quot;:{&amp;quot;1&amp;quot;:2,&amp;quot;2&amp;quot;:0},&amp;quot;15&amp;quot;:&amp;quot;Calibri, sans-serif&amp;quot;,&amp;quot;16&amp;quot;:13}&quot; data-sheets-value=&quot;{&amp;quot;1&amp;quot;:2,&amp;quot;2&amp;quot;:&amp;quot;Nguyễn Văn Trường&amp;quot;}&quot;&gt;&lt;span style=&quot;font-size: 13pt;&quot; data-sheets-userformat=&quot;{&amp;quot;2&amp;quot;:15273,&amp;quot;3&amp;quot;:{&amp;quot;1&amp;quot;:0},&amp;quot;6&amp;quot;:{&amp;quot;1&amp;quot;:[{&amp;quot;1&amp;quot;:2,&amp;quot;2&amp;quot;:0,&amp;quot;5&amp;quot;:{&amp;quot;1&amp;quot;:2,&amp;quot;2&amp;quot;:0}},{&amp;quot;1&amp;quot;:0,&amp;quot;2&amp;quot;:0,&amp;quot;3&amp;quot;:3},{&amp;quot;1&amp;quot;:1,&amp;quot;2&amp;quot;:0,&amp;quot;4&amp;quot;:1}]},&amp;quot;8&amp;quot;:{&amp;quot;1&amp;quot;:[{&amp;quot;1&amp;quot;:2,&amp;quot;2&amp;quot;:0,&amp;quot;5&amp;quot;:{&amp;quot;1&amp;quot;:2,&amp;quot;2&amp;quot;:0}},{&amp;quot;1&amp;quot;:0,&amp;quot;2&amp;quot;:0,&amp;quot;3&amp;quot;:3},{&amp;quot;1&amp;quot;:1,&amp;quot;2&amp;quot;:0,&amp;quot;4&amp;quot;:1}]},&amp;quot;10&amp;quot;:1,&amp;quot;11&amp;quot;:0,&amp;quot;12&amp;quot;:0,&amp;quot;14&amp;quot;:{&amp;quot;1&amp;quot;:2,&amp;quot;2&amp;quot;:0},&amp;quot;15&amp;quot;:&amp;quot;Calibri, sans-serif&amp;quot;,&amp;quot;16&amp;quot;:13}&quot; data-sheets-value=&quot;{&amp;quot;1&amp;quot;:2,&amp;quot;2&amp;quot;:&amp;quot;Cao Thị Phương Thảo (Đại diện)&amp;quot;}&quot;&gt;Cao Thị Phương Thảo&amp;nbsp;&lt;/span&gt;&lt;br&gt;&lt;/span&gt;&lt;i&gt;BA&lt;/i&gt;&lt;/font&gt;" name="Alison Donovan" position="System Admin" location="Office 3" email="me@example.com" placeholders="1" link="https://www.draw.io" id="rpXfXyATRKpVkTqgFrdx-24">
          <mxCell style="label;image=https://cdn3.iconfinder.com/data/icons/user-avatars-1/512/users-2-128.png;whiteSpace=wrap;html=1;rounded=0;glass=0;" vertex="1" parent="dNxyNK7c78bLwvsdeMH5-11">
            <mxGeometry x="1770" y="950" width="250" height="80" as="geometry" />
          </mxCell>
        </UserObject>
        <mxCell id="rpXfXyATRKpVkTqgFrdx-26" style="edgeStyle=orthogonalEdgeStyle;rounded=0;orthogonalLoop=1;jettySize=auto;html=1;entryX=0.5;entryY=0;entryDx=0;entryDy=0;" edge="1" target="rpXfXyATRKpVkTqgFrdx-27" source="rpXfXyATRKpVkTqgFrdx-14" parent="dNxyNK7c78bLwvsdeMH5-11">
          <mxGeometry relative="1" as="geometry">
            <mxPoint x="1785" y="585" as="sourcePoint" />
            <Array as="points">
              <mxPoint x="1795" y="870" />
              <mxPoint x="2155" y="870" />
            </Array>
          </mxGeometry>
        </mxCell>
        <UserObject label="&lt;br&gt;&lt;font style=&quot;font-family: Helvetica; font-size: 12px; font-style: normal; font-variant-ligatures: normal; font-variant-caps: normal; font-weight: 700; letter-spacing: normal; orphans: 2; text-align: left; text-indent: 0px; text-transform: none; widows: 2; word-spacing: 0px; -webkit-text-stroke-width: 0px; background-color: rgb(248, 249, 250); text-decoration-thickness: initial; text-decoration-style: initial; text-decoration-color: initial;&quot; color=&quot;#808080&quot;&gt;&lt;span style=&quot;color: rgb(0, 0, 0); font-weight: normal; font-size: 13pt; font-family: Calibri, Arial;&quot; data-sheets-userformat=&quot;{&amp;quot;2&amp;quot;:15273,&amp;quot;3&amp;quot;:{&amp;quot;1&amp;quot;:0},&amp;quot;6&amp;quot;:{&amp;quot;1&amp;quot;:[{&amp;quot;1&amp;quot;:2,&amp;quot;2&amp;quot;:0,&amp;quot;5&amp;quot;:{&amp;quot;1&amp;quot;:2,&amp;quot;2&amp;quot;:0}},{&amp;quot;1&amp;quot;:0,&amp;quot;2&amp;quot;:0,&amp;quot;3&amp;quot;:3},{&amp;quot;1&amp;quot;:1,&amp;quot;2&amp;quot;:0,&amp;quot;4&amp;quot;:1}]},&amp;quot;8&amp;quot;:{&amp;quot;1&amp;quot;:[{&amp;quot;1&amp;quot;:2,&amp;quot;2&amp;quot;:0,&amp;quot;5&amp;quot;:{&amp;quot;1&amp;quot;:2,&amp;quot;2&amp;quot;:0}},{&amp;quot;1&amp;quot;:0,&amp;quot;2&amp;quot;:0,&amp;quot;3&amp;quot;:3},{&amp;quot;1&amp;quot;:1,&amp;quot;2&amp;quot;:0,&amp;quot;4&amp;quot;:1}]},&amp;quot;10&amp;quot;:1,&amp;quot;11&amp;quot;:0,&amp;quot;12&amp;quot;:0,&amp;quot;14&amp;quot;:{&amp;quot;1&amp;quot;:2,&amp;quot;2&amp;quot;:0},&amp;quot;15&amp;quot;:&amp;quot;Calibri, sans-serif&amp;quot;,&amp;quot;16&amp;quot;:13}&quot; data-sheets-value=&quot;{&amp;quot;1&amp;quot;:2,&amp;quot;2&amp;quot;:&amp;quot;Nguyễn Văn Trường&amp;quot;}&quot;&gt;&lt;span style=&quot;font-size: 13pt;&quot; data-sheets-userformat=&quot;{&amp;quot;2&amp;quot;:15273,&amp;quot;3&amp;quot;:{&amp;quot;1&amp;quot;:0},&amp;quot;6&amp;quot;:{&amp;quot;1&amp;quot;:[{&amp;quot;1&amp;quot;:2,&amp;quot;2&amp;quot;:0,&amp;quot;5&amp;quot;:{&amp;quot;1&amp;quot;:2,&amp;quot;2&amp;quot;:0}},{&amp;quot;1&amp;quot;:0,&amp;quot;2&amp;quot;:0,&amp;quot;3&amp;quot;:3},{&amp;quot;1&amp;quot;:1,&amp;quot;2&amp;quot;:0,&amp;quot;4&amp;quot;:1}]},&amp;quot;8&amp;quot;:{&amp;quot;1&amp;quot;:[{&amp;quot;1&amp;quot;:2,&amp;quot;2&amp;quot;:0,&amp;quot;5&amp;quot;:{&amp;quot;1&amp;quot;:2,&amp;quot;2&amp;quot;:0}},{&amp;quot;1&amp;quot;:0,&amp;quot;2&amp;quot;:0,&amp;quot;3&amp;quot;:3},{&amp;quot;1&amp;quot;:1,&amp;quot;2&amp;quot;:0,&amp;quot;4&amp;quot;:1}]},&amp;quot;10&amp;quot;:1,&amp;quot;11&amp;quot;:0,&amp;quot;12&amp;quot;:0,&amp;quot;14&amp;quot;:{&amp;quot;1&amp;quot;:2,&amp;quot;2&amp;quot;:0},&amp;quot;15&amp;quot;:&amp;quot;Calibri, sans-serif&amp;quot;,&amp;quot;16&amp;quot;:13}&quot; data-sheets-value=&quot;{&amp;quot;1&amp;quot;:2,&amp;quot;2&amp;quot;:&amp;quot;Hà Văn Minh (Đại diện)&amp;quot;}&quot;&gt;Hà Văn Minh&amp;nbsp;&lt;/span&gt;&lt;br&gt;&lt;/span&gt;&lt;i&gt;Designer&lt;/i&gt;&lt;/font&gt;" name="Alison Donovan" position="System Admin" location="Office 3" email="me@example.com" placeholders="1" link="https://www.draw.io" id="rpXfXyATRKpVkTqgFrdx-27">
          <mxCell style="label;image=https://cdn3.iconfinder.com/data/icons/user-avatars-1/512/users-2-128.png;whiteSpace=wrap;html=1;rounded=0;glass=0;" vertex="1" parent="dNxyNK7c78bLwvsdeMH5-11">
            <mxGeometry x="2030" y="950" width="250" height="80" as="geometry" />
          </mxCell>
        </UserObject>
        <mxCell id="rpXfXyATRKpVkTqgFrdx-28" style="edgeStyle=orthogonalEdgeStyle;rounded=0;orthogonalLoop=1;jettySize=auto;html=1;entryX=0.5;entryY=0;entryDx=0;entryDy=0;" edge="1" target="rpXfXyATRKpVkTqgFrdx-29" source="rpXfXyATRKpVkTqgFrdx-14" parent="dNxyNK7c78bLwvsdeMH5-11">
          <mxGeometry relative="1" as="geometry">
            <mxPoint x="1785" y="585" as="sourcePoint" />
            <Array as="points">
              <mxPoint x="1795" y="870" />
              <mxPoint x="2415" y="870" />
            </Array>
          </mxGeometry>
        </mxCell>
        <UserObject label="&lt;br&gt;&lt;font style=&quot;font-family: Helvetica; font-size: 12px; font-style: normal; font-variant-ligatures: normal; font-variant-caps: normal; font-weight: 700; letter-spacing: normal; orphans: 2; text-align: left; text-indent: 0px; text-transform: none; widows: 2; word-spacing: 0px; -webkit-text-stroke-width: 0px; background-color: rgb(248, 249, 250); text-decoration-thickness: initial; text-decoration-style: initial; text-decoration-color: initial;&quot; color=&quot;#808080&quot;&gt;&lt;span style=&quot;color: rgb(0, 0, 0); font-weight: normal; font-size: 13pt; font-family: Calibri, Arial;&quot; data-sheets-userformat=&quot;{&amp;quot;2&amp;quot;:15273,&amp;quot;3&amp;quot;:{&amp;quot;1&amp;quot;:0},&amp;quot;6&amp;quot;:{&amp;quot;1&amp;quot;:[{&amp;quot;1&amp;quot;:2,&amp;quot;2&amp;quot;:0,&amp;quot;5&amp;quot;:{&amp;quot;1&amp;quot;:2,&amp;quot;2&amp;quot;:0}},{&amp;quot;1&amp;quot;:0,&amp;quot;2&amp;quot;:0,&amp;quot;3&amp;quot;:3},{&amp;quot;1&amp;quot;:1,&amp;quot;2&amp;quot;:0,&amp;quot;4&amp;quot;:1}]},&amp;quot;8&amp;quot;:{&amp;quot;1&amp;quot;:[{&amp;quot;1&amp;quot;:2,&amp;quot;2&amp;quot;:0,&amp;quot;5&amp;quot;:{&amp;quot;1&amp;quot;:2,&amp;quot;2&amp;quot;:0}},{&amp;quot;1&amp;quot;:0,&amp;quot;2&amp;quot;:0,&amp;quot;3&amp;quot;:3},{&amp;quot;1&amp;quot;:1,&amp;quot;2&amp;quot;:0,&amp;quot;4&amp;quot;:1}]},&amp;quot;10&amp;quot;:1,&amp;quot;11&amp;quot;:0,&amp;quot;12&amp;quot;:0,&amp;quot;14&amp;quot;:{&amp;quot;1&amp;quot;:2,&amp;quot;2&amp;quot;:0},&amp;quot;15&amp;quot;:&amp;quot;Calibri, sans-serif&amp;quot;,&amp;quot;16&amp;quot;:13}&quot; data-sheets-value=&quot;{&amp;quot;1&amp;quot;:2,&amp;quot;2&amp;quot;:&amp;quot;Nguyễn Văn Trường&amp;quot;}&quot;&gt;&lt;span style=&quot;font-size: 13pt;&quot; data-sheets-userformat=&quot;{&amp;quot;2&amp;quot;:15273,&amp;quot;3&amp;quot;:{&amp;quot;1&amp;quot;:0},&amp;quot;6&amp;quot;:{&amp;quot;1&amp;quot;:[{&amp;quot;1&amp;quot;:2,&amp;quot;2&amp;quot;:0,&amp;quot;5&amp;quot;:{&amp;quot;1&amp;quot;:2,&amp;quot;2&amp;quot;:0}},{&amp;quot;1&amp;quot;:0,&amp;quot;2&amp;quot;:0,&amp;quot;3&amp;quot;:3},{&amp;quot;1&amp;quot;:1,&amp;quot;2&amp;quot;:0,&amp;quot;4&amp;quot;:1}]},&amp;quot;8&amp;quot;:{&amp;quot;1&amp;quot;:[{&amp;quot;1&amp;quot;:2,&amp;quot;2&amp;quot;:0,&amp;quot;5&amp;quot;:{&amp;quot;1&amp;quot;:2,&amp;quot;2&amp;quot;:0}},{&amp;quot;1&amp;quot;:0,&amp;quot;2&amp;quot;:0,&amp;quot;3&amp;quot;:3},{&amp;quot;1&amp;quot;:1,&amp;quot;2&amp;quot;:0,&amp;quot;4&amp;quot;:1}]},&amp;quot;10&amp;quot;:1,&amp;quot;11&amp;quot;:0,&amp;quot;12&amp;quot;:0,&amp;quot;14&amp;quot;:{&amp;quot;1&amp;quot;:2,&amp;quot;2&amp;quot;:0},&amp;quot;15&amp;quot;:&amp;quot;Calibri, sans-serif&amp;quot;,&amp;quot;16&amp;quot;:13}&quot; data-sheets-value=&quot;{&amp;quot;1&amp;quot;:2,&amp;quot;2&amp;quot;:&amp;quot;Trần Văn Hà (đại diện)&amp;quot;}&quot;&gt;Trần Văn Hà&amp;nbsp;&lt;/span&gt;&lt;br&gt;&lt;/span&gt;&lt;i&gt;QA&lt;/i&gt;&lt;/font&gt;" name="Alison Donovan" position="System Admin" location="Office 3" email="me@example.com" placeholders="1" link="https://www.draw.io" id="rpXfXyATRKpVkTqgFrdx-29">
          <mxCell style="label;image=https://cdn3.iconfinder.com/data/icons/user-avatars-1/512/users-2-128.png;whiteSpace=wrap;html=1;rounded=0;glass=0;" vertex="1" parent="dNxyNK7c78bLwvsdeMH5-11">
            <mxGeometry x="2290" y="950" width="250" height="80" as="geometry" />
          </mxCell>
        </UserObject>
        <mxCell id="rpXfXyATRKpVkTqgFrdx-31" value="" style="edgeStyle=orthogonalEdgeStyle;rounded=0;orthogonalLoop=1;jettySize=auto;html=1;" edge="1" source="rpXfXyATRKpVkTqgFrdx-9" target="rpXfXyATRKpVkTqgFrdx-32" parent="dNxyNK7c78bLwvsdeMH5-11">
          <mxGeometry relative="1" as="geometry" />
        </mxCell>
        <UserObject label="&lt;span style=&quot;font-weight: normal; font-size: 13pt; font-family: Calibri, Arial;&quot; data-sheets-userformat=&quot;{&amp;quot;2&amp;quot;:15273,&amp;quot;3&amp;quot;:{&amp;quot;1&amp;quot;:0},&amp;quot;6&amp;quot;:{&amp;quot;1&amp;quot;:[{&amp;quot;1&amp;quot;:2,&amp;quot;2&amp;quot;:0,&amp;quot;5&amp;quot;:{&amp;quot;1&amp;quot;:2,&amp;quot;2&amp;quot;:0}},{&amp;quot;1&amp;quot;:0,&amp;quot;2&amp;quot;:0,&amp;quot;3&amp;quot;:3},{&amp;quot;1&amp;quot;:1,&amp;quot;2&amp;quot;:0,&amp;quot;4&amp;quot;:1}]},&amp;quot;8&amp;quot;:{&amp;quot;1&amp;quot;:[{&amp;quot;1&amp;quot;:2,&amp;quot;2&amp;quot;:0,&amp;quot;5&amp;quot;:{&amp;quot;1&amp;quot;:2,&amp;quot;2&amp;quot;:0}},{&amp;quot;1&amp;quot;:0,&amp;quot;2&amp;quot;:0,&amp;quot;3&amp;quot;:3},{&amp;quot;1&amp;quot;:1,&amp;quot;2&amp;quot;:0,&amp;quot;4&amp;quot;:1}]},&amp;quot;10&amp;quot;:1,&amp;quot;11&amp;quot;:0,&amp;quot;12&amp;quot;:0,&amp;quot;14&amp;quot;:{&amp;quot;1&amp;quot;:2,&amp;quot;2&amp;quot;:0},&amp;quot;15&amp;quot;:&amp;quot;Calibri, sans-serif&amp;quot;,&amp;quot;16&amp;quot;:13}&quot; data-sheets-value=&quot;{&amp;quot;1&amp;quot;:2,&amp;quot;2&amp;quot;:&amp;quot;Trần Thị Quỳnh Trang&amp;quot;}&quot;&gt;Trần Thị Quỳnh Trang&lt;/span&gt;&lt;br&gt;&lt;i style=&quot;color: gray;&quot;&gt;School&#39;s president&lt;/i&gt;" name="Tessa Miller" position="CFO" location="Office 1" email="me@example.com" placeholders="1" link="https://www.draw.io" id="rpXfXyATRKpVkTqgFrdx-32">
          <mxCell style="label;image=https://cdn3.iconfinder.com/data/icons/user-avatars-1/512/users-3-128.png;whiteSpace=wrap;html=1;rounded=0;glass=0;treeMoving=1;treeFolding=1;" vertex="1" parent="dNxyNK7c78bLwvsdeMH5-11">
            <mxGeometry x="418" y="160" width="232" height="70" as="geometry" />
          </mxCell>
        </UserObject>
        <mxCell id="rpXfXyATRKpVkTqgFrdx-35" value="" style="edgeStyle=orthogonalEdgeStyle;rounded=0;orthogonalLoop=1;jettySize=auto;html=1;" edge="1" target="rpXfXyATRKpVkTqgFrdx-36" source="rpXfXyATRKpVkTqgFrdx-32" parent="dNxyNK7c78bLwvsdeMH5-11">
          <mxGeometry relative="1" as="geometry">
            <mxPoint x="1012" y="75" as="sourcePoint" />
          </mxGeometry>
        </mxCell>
        <mxCell id="rpXfXyATRKpVkTqgFrdx-42" style="edgeStyle=orthogonalEdgeStyle;rounded=0;orthogonalLoop=1;jettySize=auto;html=1;entryX=0.5;entryY=0;entryDx=0;entryDy=0;" edge="1" parent="dNxyNK7c78bLwvsdeMH5-11" source="rpXfXyATRKpVkTqgFrdx-36" target="rpXfXyATRKpVkTqgFrdx-37">
          <mxGeometry relative="1" as="geometry">
            <Array as="points">
              <mxPoint x="534" y="390" />
              <mxPoint x="346" y="390" />
            </Array>
          </mxGeometry>
        </mxCell>
        <UserObject label="&lt;span style=&quot;font-weight: normal; font-size: 13pt; font-family: Calibri, Arial;&quot; data-sheets-userformat=&quot;{&amp;quot;2&amp;quot;:15273,&amp;quot;3&amp;quot;:{&amp;quot;1&amp;quot;:0},&amp;quot;6&amp;quot;:{&amp;quot;1&amp;quot;:[{&amp;quot;1&amp;quot;:2,&amp;quot;2&amp;quot;:0,&amp;quot;5&amp;quot;:{&amp;quot;1&amp;quot;:2,&amp;quot;2&amp;quot;:0}},{&amp;quot;1&amp;quot;:0,&amp;quot;2&amp;quot;:0,&amp;quot;3&amp;quot;:3},{&amp;quot;1&amp;quot;:1,&amp;quot;2&amp;quot;:0,&amp;quot;4&amp;quot;:1}]},&amp;quot;8&amp;quot;:{&amp;quot;1&amp;quot;:[{&amp;quot;1&amp;quot;:2,&amp;quot;2&amp;quot;:0,&amp;quot;5&amp;quot;:{&amp;quot;1&amp;quot;:2,&amp;quot;2&amp;quot;:0}},{&amp;quot;1&amp;quot;:0,&amp;quot;2&amp;quot;:0,&amp;quot;3&amp;quot;:3},{&amp;quot;1&amp;quot;:1,&amp;quot;2&amp;quot;:0,&amp;quot;4&amp;quot;:1}]},&amp;quot;10&amp;quot;:1,&amp;quot;11&amp;quot;:0,&amp;quot;12&amp;quot;:0,&amp;quot;14&amp;quot;:{&amp;quot;1&amp;quot;:2,&amp;quot;2&amp;quot;:0},&amp;quot;15&amp;quot;:&amp;quot;Calibri, sans-serif&amp;quot;,&amp;quot;16&amp;quot;:13}&quot; data-sheets-value=&quot;{&amp;quot;1&amp;quot;:2,&amp;quot;2&amp;quot;:&amp;quot;Nguyễn Anh Quang&amp;quot;}&quot;&gt;Nguyễn Anh Quang&lt;/span&gt;&lt;br&gt;&lt;font color=&quot;#808080&quot;&gt;&lt;i&gt;Head of school council&lt;/i&gt;&lt;/font&gt;" name="Tessa Miller" position="CFO" location="Office 1" email="me@example.com" placeholders="1" link="https://www.draw.io" id="rpXfXyATRKpVkTqgFrdx-36">
          <mxCell style="label;image=https://cdn3.iconfinder.com/data/icons/user-avatars-1/512/users-3-128.png;whiteSpace=wrap;html=1;rounded=0;glass=0;treeMoving=1;treeFolding=1;" vertex="1" parent="dNxyNK7c78bLwvsdeMH5-11">
            <mxGeometry x="418" y="290" width="232" height="70" as="geometry" />
          </mxCell>
        </UserObject>
        <UserObject label="&lt;span style=&quot;font-weight: normal; font-size: 13pt; font-family: Calibri, Arial;&quot; data-sheets-userformat=&quot;{&amp;quot;2&amp;quot;:15273,&amp;quot;3&amp;quot;:{&amp;quot;1&amp;quot;:0},&amp;quot;6&amp;quot;:{&amp;quot;1&amp;quot;:[{&amp;quot;1&amp;quot;:2,&amp;quot;2&amp;quot;:0,&amp;quot;5&amp;quot;:{&amp;quot;1&amp;quot;:2,&amp;quot;2&amp;quot;:0}},{&amp;quot;1&amp;quot;:0,&amp;quot;2&amp;quot;:0,&amp;quot;3&amp;quot;:3},{&amp;quot;1&amp;quot;:1,&amp;quot;2&amp;quot;:0,&amp;quot;4&amp;quot;:1}]},&amp;quot;8&amp;quot;:{&amp;quot;1&amp;quot;:[{&amp;quot;1&amp;quot;:2,&amp;quot;2&amp;quot;:0,&amp;quot;5&amp;quot;:{&amp;quot;1&amp;quot;:2,&amp;quot;2&amp;quot;:0}},{&amp;quot;1&amp;quot;:0,&amp;quot;2&amp;quot;:0,&amp;quot;3&amp;quot;:3},{&amp;quot;1&amp;quot;:1,&amp;quot;2&amp;quot;:0,&amp;quot;4&amp;quot;:1}]},&amp;quot;10&amp;quot;:1,&amp;quot;11&amp;quot;:0,&amp;quot;12&amp;quot;:0,&amp;quot;14&amp;quot;:{&amp;quot;1&amp;quot;:2,&amp;quot;2&amp;quot;:0},&amp;quot;15&amp;quot;:&amp;quot;Calibri, sans-serif&amp;quot;,&amp;quot;16&amp;quot;:13}&quot; data-sheets-value=&quot;{&amp;quot;1&amp;quot;:2,&amp;quot;2&amp;quot;:&amp;quot;Trần Việt Khánh&amp;quot;}&quot;&gt;Trần Việt Khánh&lt;/span&gt;&lt;br&gt;&lt;i style=&quot;color: gray;&quot;&gt;Head of Student Administration Department&lt;/i&gt;" name="Tessa Miller" position="CFO" location="Office 1" email="me@example.com" placeholders="1" link="https://www.draw.io" id="rpXfXyATRKpVkTqgFrdx-37">
          <mxCell style="label;image=https://cdn3.iconfinder.com/data/icons/user-avatars-1/512/users-3-128.png;whiteSpace=wrap;html=1;rounded=0;glass=0;treeMoving=1;treeFolding=1;" vertex="1" parent="dNxyNK7c78bLwvsdeMH5-11">
            <mxGeometry x="230" y="430" width="232" height="70" as="geometry" />
          </mxCell>
        </UserObject>
        <mxCell id="rpXfXyATRKpVkTqgFrdx-38" value="" style="edgeStyle=orthogonalEdgeStyle;rounded=0;orthogonalLoop=1;jettySize=auto;html=1;" edge="1" target="rpXfXyATRKpVkTqgFrdx-39" source="rpXfXyATRKpVkTqgFrdx-36" parent="dNxyNK7c78bLwvsdeMH5-11">
          <mxGeometry relative="1" as="geometry">
            <mxPoint x="534" y="220" as="sourcePoint" />
            <Array as="points">
              <mxPoint x="534" y="390" />
              <mxPoint x="590" y="390" />
            </Array>
          </mxGeometry>
        </mxCell>
        <UserObject label="&lt;span style=&quot;font-weight: normal; font-size: 13pt; font-family: Calibri, Arial;&quot; data-sheets-userformat=&quot;{&amp;quot;2&amp;quot;:15273,&amp;quot;3&amp;quot;:{&amp;quot;1&amp;quot;:0},&amp;quot;6&amp;quot;:{&amp;quot;1&amp;quot;:[{&amp;quot;1&amp;quot;:2,&amp;quot;2&amp;quot;:0,&amp;quot;5&amp;quot;:{&amp;quot;1&amp;quot;:2,&amp;quot;2&amp;quot;:0}},{&amp;quot;1&amp;quot;:0,&amp;quot;2&amp;quot;:0,&amp;quot;3&amp;quot;:3},{&amp;quot;1&amp;quot;:1,&amp;quot;2&amp;quot;:0,&amp;quot;4&amp;quot;:1}]},&amp;quot;8&amp;quot;:{&amp;quot;1&amp;quot;:[{&amp;quot;1&amp;quot;:2,&amp;quot;2&amp;quot;:0,&amp;quot;5&amp;quot;:{&amp;quot;1&amp;quot;:2,&amp;quot;2&amp;quot;:0}},{&amp;quot;1&amp;quot;:0,&amp;quot;2&amp;quot;:0,&amp;quot;3&amp;quot;:3},{&amp;quot;1&amp;quot;:1,&amp;quot;2&amp;quot;:0,&amp;quot;4&amp;quot;:1}]},&amp;quot;10&amp;quot;:1,&amp;quot;11&amp;quot;:0,&amp;quot;12&amp;quot;:0,&amp;quot;14&amp;quot;:{&amp;quot;1&amp;quot;:2,&amp;quot;2&amp;quot;:0},&amp;quot;15&amp;quot;:&amp;quot;Calibri, sans-serif&amp;quot;,&amp;quot;16&amp;quot;:13}&quot; data-sheets-value=&quot;{&amp;quot;1&amp;quot;:2,&amp;quot;2&amp;quot;:&amp;quot;Cao Thị Lan Anh (đại diện)&amp;quot;}&quot;&gt;Cao Thị Lan Anh&amp;nbsp;&lt;/span&gt;&lt;br&gt;&lt;font color=&quot;#808080&quot;&gt;&lt;i&gt;Faculty&#39;s Dean&lt;/i&gt;&lt;/font&gt;" name="Tessa Miller" position="CFO" location="Office 1" email="me@example.com" placeholders="1" link="https://www.draw.io" id="rpXfXyATRKpVkTqgFrdx-39">
          <mxCell style="label;image=https://cdn3.iconfinder.com/data/icons/user-avatars-1/512/users-3-128.png;whiteSpace=wrap;html=1;rounded=0;glass=0;treeMoving=1;treeFolding=1;" vertex="1" parent="dNxyNK7c78bLwvsdeMH5-11">
            <mxGeometry x="490" y="430" width="232" height="70" as="geometry" />
          </mxCell>
        </UserObject>
        <mxCell id="rpXfXyATRKpVkTqgFrdx-43" value="" style="edgeStyle=orthogonalEdgeStyle;rounded=0;orthogonalLoop=1;jettySize=auto;html=1;" edge="1" target="rpXfXyATRKpVkTqgFrdx-44" source="rpXfXyATRKpVkTqgFrdx-36" parent="dNxyNK7c78bLwvsdeMH5-11">
          <mxGeometry relative="1" as="geometry">
            <mxPoint x="534" y="220" as="sourcePoint" />
            <Array as="points">
              <mxPoint x="534" y="390" />
              <mxPoint x="866" y="390" />
            </Array>
          </mxGeometry>
        </mxCell>
        <UserObject label="&lt;span style=&quot;font-weight: normal; font-size: 13pt; font-family: Calibri, Arial;&quot; data-sheets-userformat=&quot;{&amp;quot;2&amp;quot;:15273,&amp;quot;3&amp;quot;:{&amp;quot;1&amp;quot;:0},&amp;quot;6&amp;quot;:{&amp;quot;1&amp;quot;:[{&amp;quot;1&amp;quot;:2,&amp;quot;2&amp;quot;:0,&amp;quot;5&amp;quot;:{&amp;quot;1&amp;quot;:2,&amp;quot;2&amp;quot;:0}},{&amp;quot;1&amp;quot;:0,&amp;quot;2&amp;quot;:0,&amp;quot;3&amp;quot;:3},{&amp;quot;1&amp;quot;:1,&amp;quot;2&amp;quot;:0,&amp;quot;4&amp;quot;:1}]},&amp;quot;8&amp;quot;:{&amp;quot;1&amp;quot;:[{&amp;quot;1&amp;quot;:2,&amp;quot;2&amp;quot;:0,&amp;quot;5&amp;quot;:{&amp;quot;1&amp;quot;:2,&amp;quot;2&amp;quot;:0}},{&amp;quot;1&amp;quot;:0,&amp;quot;2&amp;quot;:0,&amp;quot;3&amp;quot;:3},{&amp;quot;1&amp;quot;:1,&amp;quot;2&amp;quot;:0,&amp;quot;4&amp;quot;:1}]},&amp;quot;10&amp;quot;:1,&amp;quot;11&amp;quot;:0,&amp;quot;12&amp;quot;:0,&amp;quot;14&amp;quot;:{&amp;quot;1&amp;quot;:2,&amp;quot;2&amp;quot;:0},&amp;quot;15&amp;quot;:&amp;quot;Calibri, sans-serif&amp;quot;,&amp;quot;16&amp;quot;:13}&quot; data-sheets-value=&quot;{&amp;quot;1&amp;quot;:2,&amp;quot;2&amp;quot;:&amp;quot;Nguyễn Quang Minh (Đại diện)&amp;quot;}&quot;&gt;Nguyễn Quang Minh&lt;/span&gt;&lt;br&gt;&lt;font color=&quot;#808080&quot;&gt;&lt;i&gt;Librarian&lt;/i&gt;&lt;/font&gt;" name="Tessa Miller" position="CFO" location="Office 1" email="me@example.com" placeholders="1" link="https://www.draw.io" id="rpXfXyATRKpVkTqgFrdx-44">
          <mxCell style="label;image=https://cdn3.iconfinder.com/data/icons/user-avatars-1/512/users-3-128.png;whiteSpace=wrap;html=1;rounded=0;glass=0;treeMoving=1;treeFolding=1;" vertex="1" parent="dNxyNK7c78bLwvsdeMH5-11">
            <mxGeometry x="750" y="430" width="232" height="70" as="geometry" />
          </mxCell>
        </UserObject>
        <UserObject label="&lt;span style=&quot;&quot; data-sheets-userformat=&quot;{&amp;quot;2&amp;quot;:15273,&amp;quot;3&amp;quot;:{&amp;quot;1&amp;quot;:0},&amp;quot;6&amp;quot;:{&amp;quot;1&amp;quot;:[{&amp;quot;1&amp;quot;:2,&amp;quot;2&amp;quot;:0,&amp;quot;5&amp;quot;:{&amp;quot;1&amp;quot;:2,&amp;quot;2&amp;quot;:0}},{&amp;quot;1&amp;quot;:0,&amp;quot;2&amp;quot;:0,&amp;quot;3&amp;quot;:3},{&amp;quot;1&amp;quot;:1,&amp;quot;2&amp;quot;:0,&amp;quot;4&amp;quot;:1}]},&amp;quot;8&amp;quot;:{&amp;quot;1&amp;quot;:[{&amp;quot;1&amp;quot;:2,&amp;quot;2&amp;quot;:0,&amp;quot;5&amp;quot;:{&amp;quot;1&amp;quot;:2,&amp;quot;2&amp;quot;:0}},{&amp;quot;1&amp;quot;:0,&amp;quot;2&amp;quot;:0,&amp;quot;3&amp;quot;:3},{&amp;quot;1&amp;quot;:1,&amp;quot;2&amp;quot;:0,&amp;quot;4&amp;quot;:1}]},&amp;quot;10&amp;quot;:1,&amp;quot;11&amp;quot;:0,&amp;quot;12&amp;quot;:0,&amp;quot;14&amp;quot;:{&amp;quot;1&amp;quot;:2,&amp;quot;2&amp;quot;:0},&amp;quot;15&amp;quot;:&amp;quot;Calibri, sans-serif&amp;quot;,&amp;quot;16&amp;quot;:13}&quot; data-sheets-value=&quot;{&amp;quot;1&amp;quot;:2,&amp;quot;2&amp;quot;:&amp;quot;Tạ Thị Bích (Đại diện Học sinh trường)&amp;quot;}&quot;&gt;&lt;font face=&quot;Calibri, Arial&quot;&gt;&lt;span style=&quot;font-size: 13pt; font-weight: normal;&quot;&gt;Tạ Thị Bích &lt;/span&gt;&lt;span style=&quot;font-size: 17.3333px; font-weight: 400;&quot;&gt;&lt;br&gt;&lt;/span&gt;&lt;/font&gt;&lt;/span&gt;&lt;font color=&quot;#808080&quot;&gt;&lt;i&gt;President of The Student Union&lt;/i&gt;&lt;/font&gt;" name="Tessa Miller" position="CFO" location="Office 1" email="me@example.com" placeholders="1" link="https://www.draw.io" id="rpXfXyATRKpVkTqgFrdx-45">
          <mxCell style="label;image=https://cdn3.iconfinder.com/data/icons/user-avatars-1/512/users-3-128.png;whiteSpace=wrap;html=1;rounded=0;glass=0;treeMoving=1;treeFolding=1;" vertex="1" parent="dNxyNK7c78bLwvsdeMH5-11">
            <mxGeometry x="490" y="560" width="250" height="70" as="geometry" />
          </mxCell>
        </UserObject>
        <mxCell id="rpXfXyATRKpVkTqgFrdx-51" style="edgeStyle=orthogonalEdgeStyle;rounded=0;orthogonalLoop=1;jettySize=auto;html=1;entryX=0;entryY=0.75;entryDx=0;entryDy=0;" edge="1" parent="dNxyNK7c78bLwvsdeMH5-11" source="rpXfXyATRKpVkTqgFrdx-37" target="rpXfXyATRKpVkTqgFrdx-45">
          <mxGeometry relative="1" as="geometry">
            <mxPoint x="346" y="650" as="targetPoint" />
            <Array as="points">
              <mxPoint x="346" y="613" />
            </Array>
          </mxGeometry>
        </mxCell>
        <mxCell id="rpXfXyATRKpVkTqgFrdx-53" style="edgeStyle=orthogonalEdgeStyle;rounded=0;orthogonalLoop=1;jettySize=auto;html=1;entryX=1;entryY=0.75;entryDx=0;entryDy=0;" edge="1" parent="dNxyNK7c78bLwvsdeMH5-11" source="rpXfXyATRKpVkTqgFrdx-44" target="rpXfXyATRKpVkTqgFrdx-45">
          <mxGeometry relative="1" as="geometry">
            <mxPoint x="750" y="600" as="targetPoint" />
            <Array as="points">
              <mxPoint x="910" y="610" />
              <mxPoint x="750" y="610" />
              <mxPoint x="750" y="613" />
            </Array>
          </mxGeometry>
        </mxCell>
        <mxCell id="rpXfXyATRKpVkTqgFrdx-10" style="edgeStyle=orthogonalEdgeStyle;rounded=0;orthogonalLoop=1;jettySize=auto;html=1;" edge="1" parent="1" source="rpXfXyATRKpVkTqgFrdx-9">
          <mxGeometry relative="1" as="geometry">
            <mxPoint x="1560" y="170" as="targetPoint" />
          </mxGeometry>
        </mxCell>
        <mxCell id="rpXfXyATRKpVkTqgFrdx-52" style="edgeStyle=orthogonalEdgeStyle;rounded=0;orthogonalLoop=1;jettySize=auto;html=1;" edge="1" parent="1" source="rpXfXyATRKpVkTqgFrdx-39">
          <mxGeometry relative="1" as="geometry">
            <mxPoint x="606" y="540" as="targetPoint" />
          </mxGeometry>
        </mxCell>
      </root>
    </mxGraphModel>
  </diagram>
</mxfile>
